#!OML:ASF H:\MichaelJackson\Top Level 1\Subject 1\Session 1\male.ASF
:FULLY-SPECIFIED
:DEGREES
720
root -9.93735 16.172 30.1085 -350.9 7.38272 0.536432
lowerback -2.51908 -2.06245 5.71014
upperback -1.43625 -2.87389 -3.59103
thorax -0.542928 -1.50998 -7.00117
lowerneck -9.15824 0.134241 6.97462
upperneck 2.05854 -0.555263 -1.18327
head 2.23769 -0.24421 -1.62858
rclavicle -3.26504e-014 -2.14687e-014
rhumerus 15.3542 -28.4955 1.62399
rradius 34.4389
rwrist -19.5743
rhand -0.466005 -22.4949
rfingers 7.12502
rthumb 25.1439 -50.859
lclavicle -3.26504e-014 -2.14687e-014
lhumerus -49.7982 -38.285 116.955
lradius 41.032
lwrist 19.9795
lhand 41.165 33.8741
lfingers 7.12502
lthumb 63.3536 43.5739
rfemur -26.2541 1.84027 2.18566
rtibia 42.4584
rfoot -24.9787 0.920862
rtoes -27.4737
lfemur -1.1882 -8.00386 2.91192
ltibia 5.79874
lfoot -26.7265 -9.05177
ltoes -27.6362
721
root -9.92757 16.1753 30.1063 -350.933 7.3624 0.531915
lowerback -2.53374 -2.03649 5.69672
upperback -1.43365 -2.83949 -3.60014
thorax -0.526163 -1.49192 -7.00369
lowerneck -9.14833 0.136142 6.96729
upperneck 2.07288 -0.551346 -1.18198
head 2.2408 -0.241959 -1.62672
rclavicle 2.06736e-014 4.77083e-015
rhumerus 15.3145 -28.4461 1.57367
rradius 34.4647
rwrist -19.5398
rhand -0.764971 -21.9917
rfingers 7.12502
rthumb 24.8575 -50.3957
lclavicle 2.06736e-014 4.77083e-015
lhumerus -49.7456 -38.2986 116.945
lradius 40.9957
lwrist 19.941
lhand 41.2069 33.8861
lfingers 7.12502
lthumb 63.3878 43.5376
rfemur -26.1769 1.88281 2.15303
rtibia 42.3484
rfoot -24.8778 0.967874
rtoes -27.2918
lfemur -1.21315 -8.00014 2.87035
ltibia 5.91041
lfoot -26.738 -9.11615
ltoes -27.5232
722
root -9.9179 16.1796 30.1045 -350.962 7.33949 0.514265
lowerback -2.56153 -2.0076 5.69876
upperback -1.43337 -2.80208 -3.60588
thorax -0.504575 -1.47234 -7.01198
lowerneck -9.14591 0.14076 6.96323
upperneck 2.10498 -0.544622 -1.18834
head 2.25143 -0.238129 -1.62811
rclavicle 4.13969e-014 4.77083e-015
rhumerus 15.2738 -28.4033 1.51984
rradius 34.5019
rwrist -19.5163
rhand -1.06722 -21.4848
rfingers 7.12502
rthumb 24.5678 -49.9285
lclavicle 4.13969e-014 4.77083e-015
lhumerus -49.6978 -38.3159 116.934
lradius 40.9652
lwrist 19.9292
lhand 41.2396 33.9227
lfingers 7.12502
lthumb 63.4145 43.5363
rfemur -26.0966 1.8861 2.13658
rtibia 42.2145
rfoot -24.7756 1.07192
rtoes -27.0855
lfemur -1.24903 -7.99002 2.83749
ltibia 6.042
lfoot -26.7535 -9.17211
ltoes -27.416
723
root -9.90847 16.1845 30.1032 -350.988 7.31481 0.479937
lowerback -2.59988 -1.9755 5.71791
upperback -1.43495 -2.76124 -3.60794
thorax -0.479087 -1.45106 -7.02656
lowerneck -9.15423 0.145625 6.95963
upperneck 2.15752 -0.538626 -1.19614
head 2.27087 -0.234263 -1.63045
rclavicle -1.24737e-014 1.03368e-014
rhumerus 15.2213 -28.3426 1.47444
rradius 34.542
rwrist -19.4546
rhand -1.34919 -20.9608
rfingers 7.12502
rthumb 24.2975 -49.4409
lclavicle -1.24737e-014 1.03368e-014
lhumerus -49.6528 -38.3384 116.922
lradius 40.9416
lwrist 19.9315
lhand 41.2805 33.9826
lfingers 7.12502
lthumb 63.4478 43.5489
rfemur -26.0119 1.85828 2.14079
rtibia 42.0575
rfoot -24.6736 1.21748
rtoes -26.8722
lfemur -1.28941 -7.97421 2.81906
ltibia 6.18312
lfoot -26.7725 -9.21704
ltoes -27.3249
724
root -9.89927 16.1899 30.102 -351.014 7.28944 0.431558
lowerback -2.64417 -1.94153 5.74933
upperback -1.43659 -2.71846 -3.60528
thorax -0.450376 -1.42874 -7.04338
lowerneck -9.16448 0.151196 6.95145
upperneck 2.22174 -0.531732 -1.19801
head 2.29458 -0.229559 -1.63011
rclavicle -2.16178e-014 -1.66979e-014
rhumerus 15.1558 -28.2504 1.44597
rradius 34.5809
rwrist -19.3454
rhand -1.60623 -20.4151
rfingers 7.12502
rthumb 24.051 -48.928
lclavicle -2.16178e-014 -1.66979e-014
lhumerus -49.6092 -38.3675 116.91
lradius 40.9228
lwrist 19.9447
lhand 41.3309 34.0473
lfingers 7.12502
lthumb 63.4888 43.5551
rfemur -25.9188 1.80876 2.16291
rtibia 41.8795
rfoot -24.5728 1.38662
rtoes -26.6748
lfemur -1.32608 -7.95537 2.81314
ltibia 6.32243
lfoot -26.7929 -9.25046
ltoes -27.2519
725
root -9.89023 16.1956 30.1011 -351.042 7.26628 0.3774
lowerback -2.69216 -1.9081 5.78466
upperback -1.43707 -2.67668 -3.60046
thorax -0.418583 -1.40679 -7.06028
lowerneck -9.18331 0.156395 6.94361
upperneck 2.29988 -0.526268 -1.19839
head 2.32451 -0.22522 -1.62964
rclavicle 8.29926e-015 -1.59028e-014
rhumerus 15.0688 -28.106 1.4434
rradius 34.6287
rwrist -19.2379
rhand -1.86037 -19.8599
rfingers 7.12502
rthumb 23.8073 -48.4048
lclavicle 8.29926e-015 -1.59028e-014
lhumerus -49.5698 -38.4054 116.903
lradius 40.9107
lwrist 19.9628
lhand 41.3892 34.1079
lfingers 7.12502
lthumb 63.5363 43.5477
rfemur -25.8146 1.7415 2.19384
rtibia 41.6842
rfoot -24.477 1.5668
rtoes -26.5036
lfemur -1.35584 -7.9382 2.81135
ltibia 6.45415
lfoot -26.8132 -9.27226
ltoes -27.1944
726
root -9.88143 16.2017 30.1001 -351.074 7.24779 0.315795
lowerback -2.73873 -1.87652 5.82458
upperback -1.43672 -2.63748 -3.59289
thorax -0.387204 -1.38613 -7.07683
lowerneck -9.21185 0.160531 6.94254
upperneck 2.39306 -0.523828 -1.20067
head 2.36123 -0.222053 -1.63144
rclavicle -2.52457e-014 -2.70347e-014
rhumerus 14.9819 -27.9375 1.44483
rradius 34.672
rwrist -19.1326
rhand -2.11873 -19.3016
rfingers 7.12502
rthumb 23.5595 -47.8785
lclavicle -2.52457e-014 -2.70347e-014
lhumerus -49.5389 -38.4517 116.902
lradius 40.9103
lwrist 19.9815
lhand 41.453 34.1669
lfingers 7.12502
lthumb 63.5881 43.532
rfemur -25.6989 1.67019 2.23521
rtibia 41.4755
rfoot -24.3845 1.73989
rtoes -26.3678
lfemur -1.37458 -7.92505 2.81744
ltibia 6.5695
lfoot -26.8314 -9.28281
ltoes -27.1565
727
root -9.87292 16.2078 30.0987 -351.109 7.23364 0.24839
lowerback -2.77786 -1.84752 5.86566
upperback -1.43739 -2.60145 -3.58186
thorax -0.361412 -1.36728 -7.09002
lowerneck -9.23866 0.164383 6.93728
upperneck 2.49178 -0.521698 -1.1933
head 2.39946 -0.218649 -1.62935
rclavicle 1.13804e-014 -4.77083e-015
rhumerus 14.9073 -27.7594 1.43921
rradius 34.7078
rwrist -19.0504
rhand -2.38999 -18.7463
rfingers 7.12502
rthumb 23.2993 -47.3565
lclavicle 1.13804e-014 -4.77083e-015
lhumerus -49.5203 -38.5052 116.913
lradius 40.9169
lwrist 19.9969
lhand 41.5176 34.2188
lfingers 7.12502
lthumb 63.6406 43.5079
rfemur -25.5757 1.60024 2.28503
rtibia 41.2584
rfoot -24.294 1.89984
rtoes -26.27
lfemur -1.38106 -7.91581 2.83113
ltibia 6.66273
lfoot -26.8444 -9.28347
ltoes -27.1387
728
root -9.86462 16.214 30.0972 -351.144 7.22312 0.182376
lowerback -2.81274 -1.82246 5.90081
upperback -1.43895 -2.5704 -3.56879
thorax -0.339342 -1.35103 -7.09743
lowerneck -9.27371 0.16724 6.93453
upperneck 2.60022 -0.521938 -1.18621
head 2.44247 -0.216192 -1.62811
rclavicle 1.49089e-015 1.59028e-015
rhumerus 14.8507 -27.5801 1.41879
rradius 34.7365
rwrist -18.995
rhand -2.68043 -18.2053
rfingers 7.12502
rthumb 23.0206 -46.8505
lclavicle 1.49089e-015 1.59028e-015
lhumerus -49.5104 -38.5615 116.937
lradius 40.9276
lwrist 20.0053
lhand 41.577 34.2538
lfingers 7.12502
lthumb 63.6888 43.4729
rfemur -25.4488 1.5395 2.33415
rtibia 41.0376
rfoot -24.2048 2.03948
rtoes -26.2039
lfemur -1.3762 -7.90997 2.84426
ltibia 6.73147
lfoot -26.8525 -9.2722
ltoes -27.1434
